<svg width="100" height="100" viewBox="0 0 100 100" fill="none" xmlns="http://www.w3.org/2000/svg">
<path d="M78.125 28.125H10.9375C7.48572 28.125 4.6875 30.9232 4.6875 34.375V89.0625C4.6875 92.5143 7.48572 95.3125 10.9375 95.3125H78.125C81.5768 95.3125 84.375 92.5143 84.375 89.0625V34.375C84.375 30.9232 81.5768 28.125 78.125 28.125Z" fill="#0071AF"/>
<path d="M83.4597 14.7097L74.3528 5.60279C74.0626 5.3126 73.7181 5.08242 73.339 4.92537C72.9598 4.76833 72.5535 4.6875 72.1431 4.6875H37.5C36.6712 4.6875 35.8763 5.01674 35.2903 5.60279C34.7042 6.18884 34.375 6.9837 34.375 7.8125V43.75H84.375V16.9194C84.375 16.0906 84.0458 15.2958 83.4597 14.7097Z" fill="#BDECDC"/>
<path d="M83.1123 14.3623C78.8457 30.3834 64.24 42.1874 46.875 42.1874H84.375V16.9193C84.3749 16.0905 84.0457 15.2957 83.4597 14.7096L83.1123 14.3623Z" fill="#A1C9BC"/>
<path d="M79.6875 26.5625H71.875V29.6875H79.6875V26.5625Z" fill="#59CEA7"/>
<path d="M79.6875 34.375H71.875V37.5H79.6875V34.375Z" fill="#4CB08E"/>
<path d="M83.4597 14.7097L74.3528 5.60279C74.0626 5.3126 73.7181 5.08242 73.339 4.92537C72.9598 4.76833 72.5535 4.6875 72.1431 4.6875H71.875V12.5C71.875 13.3288 72.2042 14.1237 72.7903 14.7097C73.3763 15.2958 74.1712 15.625 75 15.625H84.0906C83.9368 15.2846 83.7231 14.9746 83.4597 14.7097Z" fill="#59CEA7"/>
<path d="M70.9597 14.7097L61.8528 5.60279C61.5626 5.3126 61.2181 5.08242 60.839 4.92537C60.4598 4.76833 60.0535 4.6875 59.6431 4.6875H25C24.1712 4.6875 23.3763 5.01674 22.7903 5.60279C22.2042 6.18884 21.875 6.9837 21.875 7.8125V43.75H71.875V16.9194C71.875 16.0906 71.5458 15.2958 70.9597 14.7097Z" fill="#59CEA7"/>
<path d="M57.8125 18.75H26.5625V21.875H57.8125V18.75Z" fill="#BDECDC"/>
<path d="M67.1875 26.5625H26.5625V29.6875H67.1875V26.5625Z" fill="#BDECDC"/>
<path d="M67.1875 34.375H26.5625V37.5H67.1875V34.375Z" fill="#BDECDC"/>
<path d="M54.6875 10.9375H26.5625V14.0625H54.6875V10.9375Z" fill="#BDECDC"/>
<path d="M70.9597 14.7097L61.8528 5.60279C61.5626 5.3126 61.2181 5.08242 60.839 4.92537C60.4598 4.76833 60.0535 4.6875 59.6431 4.6875H59.375V12.5C59.375 13.3288 59.7042 14.1237 60.2903 14.7097C60.8763 15.2958 61.6712 15.625 62.5 15.625H71.5906C71.4368 15.2846 71.2231 14.9746 70.9597 14.7097Z" fill="#31C292"/>
<path d="M85.9375 42.1875H23.4375C21.7799 42.1875 20.1902 42.846 19.0181 44.0181C17.846 45.1902 17.1875 46.7799 17.1875 48.4375V89.0625C17.1875 90.7201 16.529 92.3098 15.3569 93.4819C14.1848 94.654 12.5951 95.3125 10.9375 95.3125H85.9375C87.5951 95.3125 89.1848 94.654 90.3569 93.4819C91.529 92.3098 92.1875 90.7201 92.1875 89.0625V48.4375C92.1875 46.7799 91.529 45.1902 90.3569 44.0181C89.1848 42.846 87.5951 42.1875 85.9375 42.1875Z" fill="#338DBF"/>
<path d="M89.0625 74.134V69.616L84.7461 68.5811C84.1418 67.1229 83.9113 66.5666 83.307 65.1084L85.635 61.3095C83.9084 59.5829 84.1671 59.8416 82.4406 58.1151L78.6416 60.443L75.1689 59.0039L74.1339 54.6875H69.616L68.5811 59.0039C67.1229 59.6082 66.5666 59.8387 65.1084 60.4429L61.3095 58.115C59.5829 59.8415 59.8416 59.5829 58.1151 61.3094L60.443 65.1084C59.8387 66.5666 59.6082 67.1229 59.0039 68.5811L54.6875 69.616V74.134L59.0039 75.1689C59.6081 76.6271 59.8387 77.1834 60.4429 78.6416L58.115 82.4405C59.8415 84.1671 59.5829 83.9084 61.3094 85.6349L65.1084 83.307C66.5666 83.9113 67.1229 84.1418 68.5811 84.7461L69.616 89.0625H74.1339L75.1689 84.7461C76.6271 84.1418 77.1834 83.9113 78.6416 83.3071L82.4405 85.635C84.167 83.9085 83.9084 84.1671 85.6349 82.4406L83.307 78.6416C83.9113 77.1834 84.1418 76.6271 84.746 75.1689L89.0625 74.134ZM71.875 78.125C70.6389 78.125 69.4305 77.7584 68.4027 77.0717C67.3749 76.3849 66.5738 75.4088 66.1008 74.2668C65.6278 73.1247 65.504 71.8681 65.7451 70.6557C65.9863 69.4433 66.5816 68.3297 67.4556 67.4556C68.3297 66.5815 69.4434 65.9862 70.6557 65.7451C71.8681 65.5039 73.1248 65.6277 74.2668 66.1008C75.4089 66.5738 76.385 67.3749 77.0717 68.4027C77.7585 69.4305 78.125 70.6389 78.125 71.875C78.125 73.5326 77.4666 75.1223 76.2945 76.2944C75.1224 77.4665 73.5327 78.125 71.875 78.125Z" fill="#353535"/>
<path d="M48.9558 81.8757C46.3087 75.7966 46.1824 68.9155 48.6045 62.7432C51.0267 56.571 55.7993 51.6124 61.8744 48.9561L63.1256 51.8197C57.8099 54.1442 53.6338 58.4829 51.5141 63.8835C49.3943 69.2841 49.5042 75.3051 51.8195 80.6247L48.9558 81.8757Z" fill="#CBE2EF"/>
<path d="M66.0408 50.7862L65.2092 47.7739C66.304 47.4721 67.4181 47.2454 68.5438 47.0952L68.9563 50.1929C67.9721 50.3241 66.998 50.5224 66.0408 50.7862Z" fill="#CBE2EF"/>
<path d="M39.0625 95.3125H85.9375C87.5951 95.3125 89.1848 94.654 90.3569 93.4819C91.529 92.3098 92.1874 90.7201 92.1875 89.0625V48.4375C92.1876 47.8999 92.1186 47.3646 91.9819 46.8447C89.6226 74.0033 66.833 95.3125 39.0625 95.3125Z" fill="#2C78A3"/>
<path d="M70.6123 14.3623C66.3457 30.3834 51.74 42.1874 34.375 42.1874H71.875V16.9193C71.8749 16.0905 71.5457 15.2957 70.9597 14.7096L70.6123 14.3623Z" fill="#4CB08E"/>
<path d="M67.1875 29.6875V26.5625H64.833C64.0525 27.648 63.2147 28.6911 62.3234 29.6875H67.1875Z" fill="#A1C9BC"/>
<path d="M52.5392 37.5H67.1875V34.375H57.2849C55.7842 35.535 54.1978 36.5797 52.5392 37.5Z" fill="#A1C9BC"/>
<path d="M79.6875 29.6875V26.5625H77.333C76.5525 27.648 75.7147 28.6911 74.8234 29.6875H79.6875Z" fill="#4CB08E"/>
<path d="M68.9137 86.1334L69.616 89.0625H74.1339L75.1689 84.7461C76.6271 84.1418 77.1834 83.9113 78.6416 83.307L82.4405 85.635C84.167 83.9084 83.9084 84.1671 85.6349 82.4406L83.307 78.6416C83.9113 77.1834 84.1418 76.6271 84.746 75.1689L89.0625 74.1339V69.616L85.1187 68.6704C81.1013 75.6377 75.5618 81.6073 68.9137 86.1334Z" fill="#2D2D2D"/>
<path d="M81.8756 94.7943L80.6244 91.9306C85.9401 89.6062 90.1162 85.2675 92.236 79.8669C94.3557 74.4664 94.2458 68.4453 91.9304 63.1257L94.7941 61.8745C97.4412 67.9536 97.5676 74.8348 95.1455 81.0071C92.7234 87.1793 87.9507 92.138 81.8756 94.7943Z" fill="#CBE2EF"/>
<path d="M75.2065 96.6549L74.7936 93.5573C75.7778 93.426 76.752 93.2277 77.7092 92.9639L78.5409 95.9761C77.4461 96.2779 76.3321 96.5047 75.2065 96.6549Z" fill="#CBE2EF"/>
</svg>
