<svg width="79" height="100" viewBox="0 0 79 100" fill="none" xmlns="http://www.w3.org/2000/svg">
<path d="M73.3872 27.087C73.4474 27.087 73.4978 27.0386 73.4978 26.9767V22.2022C73.4978 22.1422 73.4474 22.0919 73.3872 22.0919H73.03V16.1857C73.03 13.4657 70.8076 11.2526 68.0823 11.2526H66.6964C66.6984 11.2352 66.7139 11.2236 66.7139 11.2061V10.6026C66.7139 10.3143 66.481 10.0822 66.1937 10.0822H59.3749C59.0857 10.0822 58.8527 10.3143 58.8527 10.6026V11.2061C58.8527 11.2236 58.8702 11.2352 58.8721 11.2526H15.3969C12.6698 11.2526 10.4492 13.4657 10.4492 16.1857V89.583C10.4492 92.303 12.6698 94.5161 15.3969 94.5161H68.0823C70.8076 94.5161 73.03 92.303 73.03 89.583V34.0475H73.3658C73.4376 34.0475 73.4978 33.9895 73.4978 33.9179V29.184C73.4978 29.1124 73.4376 29.0544 73.3658 29.0544H73.03V27.087H73.3872Z" fill="#DADADA"/>
<path d="M65.0241 89.147H8.049C6.92708 89.147 6.01868 88.2416 6.01868 87.1234V9.44689C6.01868 8.33064 6.92708 7.42334 8.049 7.42334H65.0241C66.146 7.42334 67.0544 8.33064 67.0544 9.44689V87.1234C67.0544 88.2416 66.146 89.147 65.0241 89.147Z" fill="#DADADA"/>
<path d="M50.4719 89.6606H10.1955C7.60809 89.6606 5.50208 87.5616 5.50208 84.9848V11.5875C5.50208 9.00877 7.60809 6.90977 10.1955 6.90977H17.2861C17.5695 6.90977 17.8005 7.13999 17.8005 7.42437C17.8005 7.70681 17.5695 7.93702 17.2861 7.93702H10.1955C8.17488 7.93702 6.53276 9.57367 6.53276 11.5875V84.9848C6.53276 86.9968 8.17488 88.6353 10.1955 88.6353H50.4719C50.7553 88.6353 50.9882 88.8655 50.9882 89.148C50.9882 89.4304 50.7553 89.6606 50.4719 89.6606Z" fill="#41404D"/>
<path d="M62.8773 89.6606H58.3295C58.0461 89.6606 57.8151 89.4304 57.8151 89.148C57.8151 88.8655 58.0461 88.6353 58.3295 88.6353H62.8773C64.8979 88.6353 66.54 86.9968 66.54 84.9848V11.5875C66.54 9.57367 64.8979 7.93702 62.8773 7.93702H29.2373C28.9519 7.93702 28.7209 7.70681 28.7209 7.42437C28.7209 7.13999 28.9519 6.90977 29.2373 6.90977H62.8773C65.4647 6.90977 67.5707 9.00877 67.5707 11.5875V84.9848C67.5707 87.5616 65.4647 89.6606 62.8773 89.6606Z" fill="#41404D"/>
<path d="M63.4335 85.8105H10.0047C9.74846 85.8105 9.54077 85.6035 9.54077 85.3463V11.2235C9.54077 10.9681 9.74846 10.7612 10.0047 10.7612H63.4335C63.6897 10.7612 63.8974 10.9681 63.8974 11.2235V85.3463C63.8974 85.6035 63.6897 85.8105 63.4335 85.8105Z" fill="white"/>
<path d="M10.4958 11.2743C10.2532 11.2743 10.0552 11.4717 10.0552 11.7135V84.8573C10.0552 85.1011 10.2532 85.2965 10.4958 85.2965H62.9425C63.1851 85.2965 63.3851 85.1011 63.3851 84.8573V11.7135C63.3851 11.4717 63.1851 11.2743 62.9425 11.2743H10.4958ZM62.9425 86.3237H10.4958C9.68449 86.3237 9.02454 85.666 9.02454 84.8573V11.7135C9.02454 10.9048 9.68449 10.2471 10.4958 10.2471H62.9425C63.7539 10.2471 64.4138 10.9048 64.4138 11.7135V84.8573C64.4138 85.666 63.7539 86.3237 62.9425 86.3237Z" fill="#41404D"/>
<path d="M53.9039 5.48353H61.2585C61.3983 5.48353 61.5108 5.59574 61.5108 5.73503V6.87255C61.5108 7.01377 61.3983 7.12598 61.2585 7.12598H53.9039C53.7642 7.12598 53.6497 7.01377 53.6497 6.87255V5.73503C53.6497 5.59574 53.7642 5.48353 53.9039 5.48353Z" fill="#41404D"/>
<path d="M68.2937 17.5474V23.0474C68.2937 23.0764 68.2704 23.1016 68.2413 23.1016H67.3523C67.3232 23.1016 67.298 23.0764 67.298 23.0474V17.5474C67.298 17.5184 67.3232 17.4952 67.3523 17.4952H68.2413C68.2704 17.4952 68.2937 17.5184 68.2937 17.5474Z" fill="#41404D"/>
<path d="M68.2937 23.8714V29.3868C68.2937 29.4216 68.2646 29.4487 68.2297 29.4487H67.362C67.3271 29.4487 67.298 29.4216 67.298 29.3868V23.8714C67.298 23.8366 67.3271 23.8075 67.362 23.8075H68.2297C68.2646 23.8075 68.2937 23.8366 68.2937 23.8714Z" fill="#41404D"/>
<path d="M10.0549 77.1041H63.3847V62.297H10.0549V77.1041ZM63.8991 78.1313H9.53857C9.25518 78.1313 9.02417 77.9011 9.02417 77.6187V61.7843C9.02417 61.5019 9.25518 61.2716 9.53857 61.2716H63.8991C64.1825 61.2716 64.4135 61.5019 64.4135 61.7843V77.6187C64.4135 77.9011 64.1825 78.1313 63.8991 78.1313Z" fill="#41404D"/>
<path d="M26.4237 51.3281H17.2854V42.2202H26.4237V51.3281Z" fill="#DADADA"/>
<path d="M17.8017 50.8136H25.9094V42.7348H17.8017V50.8136ZM26.4257 51.8408H17.2873C17.002 51.8408 16.771 51.6106 16.771 51.3282V42.2222C16.771 41.9378 17.002 41.7076 17.2873 41.7076H26.4257C26.7091 41.7076 26.9401 41.9378 26.9401 42.2222V51.3282C26.9401 51.6106 26.7091 51.8408 26.4257 51.8408Z" fill="#41404D"/>
<path d="M41.1057 51.3281H31.9673V42.2202H41.1057V51.3281Z" fill="#DADADA"/>
<path d="M32.4817 50.8136H40.5894V42.7348H32.4817V50.8136ZM41.1057 51.8408H31.9673C31.682 51.8408 31.451 51.6106 31.451 51.3282V42.2222C31.451 41.9378 31.682 41.7076 31.9673 41.7076H41.1057C41.3891 41.7076 41.6201 41.9378 41.6201 42.2222V51.3282C41.6201 51.6106 41.3891 51.8408 41.1057 51.8408Z" fill="#41404D"/>
<path d="M55.7856 51.3281H46.6472V42.2202H55.7856V51.3281Z" fill="#DADADA"/>
<path d="M47.1636 50.8136H55.2713V42.7348H47.1636V50.8136ZM55.7876 51.8408H46.6492C46.3658 51.8408 46.1349 51.6106 46.1349 51.3282V42.2222C46.1349 41.9378 46.3658 41.7076 46.6492 41.7076H55.7876C56.071 41.7076 56.302 41.9378 56.302 42.2222V51.3282C56.302 51.6106 56.071 51.8408 55.7876 51.8408Z" fill="#41404D"/>
<path d="M24.922 54.9824H18.7883C18.5049 54.9824 18.2739 54.7522 18.2739 54.4678C18.2739 54.1854 18.5049 53.9552 18.7883 53.9552H24.922C25.2054 53.9552 25.4363 54.1854 25.4363 54.4678C25.4363 54.7522 25.2054 54.9824 24.922 54.9824Z" fill="#41404D"/>
<path d="M39.602 54.9824H33.4684C33.185 54.9824 32.954 54.7522 32.954 54.4678C32.954 54.1854 33.185 53.9552 33.4684 53.9552H39.602C39.8854 53.9552 40.1164 54.1854 40.1164 54.4678C40.1164 54.7522 39.8854 54.9824 39.602 54.9824Z" fill="#41404D"/>
<path d="M54.2839 54.9824H48.1502C47.8668 54.9824 47.6359 54.7522 47.6359 54.4678C47.6359 54.1854 47.8668 53.9552 48.1502 53.9552H54.2839C54.5673 53.9552 54.8002 54.1854 54.8002 54.4678C54.8002 54.7522 54.5673 54.9824 54.2839 54.9824Z" fill="#41404D"/>
<path d="M63.8972 35.0469H9.54053V14.5018H63.8972V35.0469Z" fill="#F4C151"/>
<path d="M10.0549 34.5343H63.3847V15.0145H10.0549V34.5343ZM63.8991 35.5596H9.53857C9.25518 35.5596 9.02417 35.3294 9.02417 35.0469V14.5019C9.02417 14.2175 9.25518 13.9873 9.53857 13.9873H63.8991C64.1825 13.9873 64.4135 14.2175 64.4135 14.5019V35.0469C64.4135 35.3294 64.1825 35.5596 63.8991 35.5596Z" fill="#41404D"/>
<path d="M49.817 23.2803H23.6228C23.3394 23.2803 23.1084 23.0501 23.1084 22.7657C23.1084 22.4832 23.3394 22.253 23.6228 22.253H49.817C50.1004 22.253 50.3314 22.4832 50.3314 22.7657C50.3314 23.0501 50.1004 23.2803 49.817 23.2803Z" fill="#41404D"/>
<path d="M43.5484 27.2939H29.8874C29.604 27.2939 29.373 27.0637 29.373 26.7794C29.373 26.4969 29.604 26.2667 29.8874 26.2667H43.5484C43.8318 26.2667 44.0647 26.4969 44.0647 26.7794C44.0647 27.0637 43.8318 27.2939 43.5484 27.2939Z" fill="#41404D"/>
<path d="M9.54053 77.6187H63.8972V61.7843H9.54053V77.6187Z" fill="#DADADA"/>
<path d="M10.0549 77.1041H63.3847V62.297H10.0549V77.1041ZM63.8991 78.1313H9.53857C9.25518 78.1313 9.02417 77.9011 9.02417 77.6187V61.7843C9.02417 61.5019 9.25518 61.2716 9.53857 61.2716H63.8991C64.1825 61.2716 64.4135 61.5019 64.4135 61.7843V77.6187C64.4135 77.9011 64.1825 78.1313 63.8991 78.1313Z" fill="#41404D"/>
<path d="M26.4251 66.8945H17.2867C17.0033 66.8945 16.7704 66.6643 16.7704 66.3799C16.7704 66.0975 17.0033 65.8673 17.2867 65.8673H26.4251C26.7085 65.8673 26.9395 66.0975 26.9395 66.3799C26.9395 66.6643 26.7085 66.8945 26.4251 66.8945Z" fill="#41404D"/>
<path d="M26.4251 70.2886H17.2867C17.0033 70.2886 16.7704 70.0584 16.7704 69.7759C16.7704 69.4915 17.0033 69.2613 17.2867 69.2613H26.4251C26.7085 69.2613 26.9395 69.4915 26.9395 69.7759C26.9395 70.0584 26.7085 70.2886 26.4251 70.2886Z" fill="#41404D"/>
<path d="M21.8549 73.6826H17.2857C17.0023 73.6826 16.7714 73.4524 16.7714 73.17C16.7714 72.8856 17.0023 72.6554 17.2857 72.6554H21.8549C22.1383 72.6554 22.3693 72.8856 22.3693 73.17C22.3693 73.4524 22.1383 73.6826 21.8549 73.6826Z" fill="#41404D"/>
<path d="M41.1051 66.8945H31.9668C31.6814 66.8945 31.4504 66.6643 31.4504 66.3799C31.4504 66.0975 31.6814 65.8673 31.9668 65.8673H41.1051C41.3885 65.8673 41.6195 66.0975 41.6195 66.3799C41.6195 66.6643 41.3885 66.8945 41.1051 66.8945Z" fill="#41404D"/>
<path d="M41.1051 70.2886H31.9668C31.6814 70.2886 31.4504 70.0584 31.4504 69.7759C31.4504 69.4915 31.6814 69.2613 31.9668 69.2613H41.1051C41.3885 69.2613 41.6195 69.4915 41.6195 69.7759C41.6195 70.0584 41.3885 70.2886 41.1051 70.2886Z" fill="#41404D"/>
<path d="M36.5369 73.6826H31.9677C31.6824 73.6826 31.4514 73.4524 31.4514 73.17C31.4514 72.8856 31.6824 72.6554 31.9677 72.6554H36.5369C36.8203 72.6554 37.0513 72.8856 37.0513 73.17C37.0513 73.4524 36.8203 73.6826 36.5369 73.6826Z" fill="#41404D"/>
<path d="M55.7869 66.8945H46.6485C46.3651 66.8945 46.1342 66.6643 46.1342 66.3799C46.1342 66.0975 46.3651 65.8673 46.6485 65.8673H55.7869C56.0703 65.8673 56.3013 66.0975 56.3013 66.3799C56.3013 66.6643 56.0703 66.8945 55.7869 66.8945Z" fill="#41404D"/>
<path d="M55.7869 70.2886H46.6485C46.3651 70.2886 46.1342 70.0584 46.1342 69.7759C46.1342 69.4915 46.3651 69.2613 46.6485 69.2613H55.7869C56.0703 69.2613 56.3013 69.4915 56.3013 69.7759C56.3013 70.0584 56.0703 70.2886 55.7869 70.2886Z" fill="#41404D"/>
<path d="M51.2167 73.6826H46.6476C46.3642 73.6826 46.1332 73.4524 46.1332 73.17C46.1332 72.8856 46.3642 72.6554 46.6476 72.6554H51.2167C51.5001 72.6554 51.7311 72.8856 51.7311 73.17C51.7311 73.4524 51.5001 73.6826 51.2167 73.6826Z" fill="#41404D"/>
<path d="M31.9673 80.6888H60.122V85.8096H31.9673V80.6888Z" fill="#F4C151"/>
<path d="M32.4817 85.297H59.6076V81.2034H32.4817V85.297ZM60.122 86.3242H31.9673C31.682 86.3242 31.451 86.0921 31.451 85.8096V80.6888C31.451 80.4064 31.682 80.1762 31.9673 80.1762H60.122C60.4054 80.1762 60.6364 80.4064 60.6364 80.6888V85.8096C60.6364 86.0921 60.4054 86.3242 60.122 86.3242Z" fill="#41404D"/>
<path d="M17.2854 80.6888H26.4237V85.8096H17.2854V80.6888Z" fill="#F4C151"/>
<path d="M17.8017 85.297H25.9094V81.2034H17.8017V85.297ZM26.4257 86.3242H17.2873C17.002 86.3242 16.771 86.0921 16.771 85.8096V80.6888C16.771 80.4064 17.002 80.1762 17.2873 80.1762H26.4257C26.7091 80.1762 26.9401 80.4064 26.9401 80.6888V85.8096C26.9401 86.0921 26.7091 86.3242 26.4257 86.3242Z" fill="#41404D"/>
</svg>
