<svg width="128" height="100" viewBox="0 0 128 100" fill="none" xmlns="http://www.w3.org/2000/svg">
<path d="M121.242 74.6392H6.75891V8.51294C6.75891 7.54814 7.53643 6.76451 8.49908 6.76451H119.5C120.462 6.76451 121.242 7.54814 121.242 8.51294V74.6392Z" fill="#DADADA"/>
<path d="M121.242 75.2192H6.75672C6.43874 75.2192 6.17957 74.9595 6.17957 74.6408V9.95305C6.17957 7.87501 8.04824 6.1877 10.3438 6.1877H89.7404C90.0583 6.1877 90.3175 6.44527 90.3175 6.76614C90.3175 7.08483 90.0583 7.34459 89.7404 7.34459H10.3438C8.68419 7.34459 7.33388 8.51458 7.33388 9.95305V74.0602H120.665V66.4727C120.665 66.1518 120.924 65.8921 121.242 65.8921C121.56 65.8921 121.819 66.1518 121.819 66.4727V74.6408C121.819 74.9595 121.56 75.2192 121.242 75.2192Z" fill="#41404D"/>
<path d="M121.242 59.5288C120.924 59.5288 120.665 59.2691 120.665 58.9504V9.9527C120.665 8.51423 119.315 7.34424 117.657 7.34424H105.064C104.744 7.34424 104.485 7.08448 104.485 6.76579C104.485 6.44492 104.744 6.18734 105.064 6.18734H117.657C119.953 6.18734 121.819 7.87466 121.819 9.9527V58.9504C121.819 59.2691 121.56 59.5288 121.242 59.5288Z" fill="#41404D"/>
<path d="M49.2223 89.8114C48.4426 89.8114 47.8045 90.4488 47.8045 91.2324C47.8045 92.0139 48.4426 92.6534 49.2223 92.6534H78.779C79.5587 92.6534 80.1947 92.0139 80.1947 91.2324C80.1947 90.4488 79.5587 89.8114 78.779 89.8114H49.2223ZM78.779 93.8125H49.2223C47.8023 93.8125 46.6501 92.6556 46.6501 91.2324C46.6501 89.8092 47.8023 88.6545 49.2223 88.6545H78.779C80.1969 88.6545 81.3512 89.8092 81.3512 91.2324C81.3512 92.6556 80.1969 93.8125 78.779 93.8125Z" fill="#41404D"/>
<path d="M116.673 71.0112H11.3245C11.0109 71.0112 10.7561 70.7558 10.7561 70.4393V11.3854C10.7561 11.0689 11.0109 10.8135 11.3245 10.8135H116.673C116.989 10.8135 117.244 11.0689 117.244 11.3854V70.4393C117.244 70.7558 116.989 71.0112 116.673 71.0112Z" fill="white"/>
<path d="M29.2248 71.0117H14.9529V10.814H29.2248V71.0117Z" fill="#F4C151"/>
<path d="M46.0058 71.0117H31.7339V10.814H46.0058V71.0117Z" fill="#F4C151"/>
<path d="M62.7889 71.0117H48.517V10.814H62.7889V71.0117Z" fill="#F4C151"/>
<path d="M79.5698 71.0117H65.2977V10.814H79.5698V71.0117Z" fill="#F4C151"/>
<path d="M96.3531 71.0117H82.0812V10.814H96.3531V71.0117Z" fill="#F4C151"/>
<path d="M113.136 71.0117H98.8641V10.814H113.136V71.0117Z" fill="#F4C151"/>
<path d="M117.244 16.4429H10.7566C10.4364 16.4429 10.1772 16.1831 10.1772 15.8644C10.1772 15.5457 10.4364 15.286 10.7566 15.286H117.244C117.562 15.286 117.822 15.5457 117.822 15.8644C117.822 16.1831 117.562 16.4429 117.244 16.4429Z" fill="#41404D"/>
<path d="M16.4338 53.7633H61.3058V23.7954H16.4338V53.7633ZM61.8851 54.9224H15.8566C15.5386 54.9224 15.2795 54.6604 15.2795 54.3417V23.217C15.2795 22.8961 15.5386 22.6363 15.8566 22.6363H61.8851C62.2031 22.6363 62.4623 22.8961 62.4623 23.217V54.3417C62.4623 54.6604 62.2031 54.9224 61.8851 54.9224Z" fill="#41404D"/>
<path d="M96.0937 23.7949H66.171C65.853 23.7949 65.5939 23.5352 65.5939 23.2165C65.5939 22.8956 65.853 22.6358 66.171 22.6358H96.0937C96.4116 22.6358 96.673 22.8956 96.673 23.2165C96.673 23.5352 96.4116 23.7949 96.0937 23.7949Z" fill="#41404D"/>
<path d="M112.263 38.3853H66.1694C65.8515 38.3853 65.5923 38.1255 65.5923 37.8068C65.5923 37.4881 65.8515 37.2284 66.1694 37.2284H112.263C112.581 37.2284 112.84 37.4881 112.84 37.8068C112.84 38.1255 112.581 38.3853 112.263 38.3853Z" fill="#41404D"/>
<path d="M112.263 43.8955H66.1694C65.8515 43.8955 65.5923 43.6358 65.5923 43.3171C65.5923 42.9984 65.8515 42.7386 66.1694 42.7386H112.263C112.581 42.7386 112.84 42.9984 112.84 43.3171C112.84 43.6358 112.581 43.8955 112.263 43.8955Z" fill="#41404D"/>
<path d="M112.263 49.4092H66.1694C65.8515 49.4092 65.5923 49.1494 65.5923 48.8286C65.5923 48.5099 65.8515 48.2501 66.1694 48.2501H112.263C112.581 48.2501 112.84 48.5099 112.84 48.8286C112.84 49.1494 112.581 49.4092 112.263 49.4092Z" fill="#41404D"/>
<path d="M96.0937 54.9214H66.171C65.853 54.9214 65.5939 54.6616 65.5939 54.3408C65.5939 54.0221 65.853 53.7623 66.171 53.7623H96.0937C96.4116 53.7623 96.673 54.0221 96.673 54.3408C96.673 54.6616 96.4116 54.9214 96.0937 54.9214Z" fill="#41404D"/>
<path d="M15.8569 54.9214C15.6718 54.9214 15.4888 54.8297 15.3778 54.666C15.2013 54.4019 15.2689 54.0417 15.5346 53.8627L61.5608 22.7358C61.8287 22.5524 62.1837 22.6288 62.3645 22.8929C62.5409 23.1571 62.4712 23.5172 62.2077 23.6962L16.1792 54.821C16.0812 54.8886 15.968 54.9214 15.8569 54.9214Z" fill="#41404D"/>
<path d="M61.8848 54.9214C61.7737 54.9214 61.6605 54.8886 61.5624 54.821L15.534 23.6962C15.2705 23.5172 15.2008 23.1571 15.3772 22.8929C15.5558 22.6288 15.9151 22.5524 16.1808 22.7358L62.2071 53.8627C62.4706 54.0417 62.5403 54.4019 62.3639 54.666C62.2529 54.8297 62.0699 54.9214 61.8848 54.9214Z" fill="#41404D"/>
<path d="M16.401 70.4335H111.686V63.3895H16.401V70.4335ZM112.263 71.5903H15.8217C15.5037 71.5903 15.2445 71.3306 15.2445 71.0119V62.8089C15.2445 62.4902 15.5037 62.2304 15.8217 62.2304H112.263C112.581 62.2304 112.84 62.4902 112.84 62.8089V71.0119C112.84 71.3306 112.581 71.5903 112.263 71.5903Z" fill="#41404D"/>
<path d="M121.248 74.6394V80.736C121.248 82.1395 119.63 83.2637 117.642 83.2637H10.335C8.36835 83.2637 6.75232 82.1395 6.75232 80.736V74.6394H121.248Z" fill="#DADADA"/>
<path d="M7.33031 75.219V80.7371C7.33031 81.7958 8.70676 82.6864 10.3337 82.6864H117.643C119.283 82.6864 120.672 81.7958 120.672 80.7371V75.219H7.33031ZM117.643 83.8433H10.3337C8.04032 83.8433 6.17383 82.4506 6.17383 80.7371V74.6405C6.17383 74.3196 6.433 74.0599 6.75316 74.0599H121.249C121.567 74.0599 121.826 74.3196 121.826 74.6405V80.7371C121.826 82.4812 119.99 83.8433 117.643 83.8433Z" fill="#41404D"/>
<path d="M76.9316 89.2334L71.8243 83.2612H56.7944L51.6871 89.2334H76.9316Z" fill="#DADADA"/>
<path d="M52.9445 88.6537H75.6756L71.5571 83.8405H57.0608L52.9445 88.6537ZM76.9322 89.8105H51.6878C51.4613 89.8105 51.2566 89.6796 51.1607 89.4744C51.0693 89.2692 51.1019 89.0269 51.25 88.8545L56.3573 82.8845C56.4662 82.7579 56.6252 82.6837 56.7951 82.6837H71.825C71.9949 82.6837 72.1538 82.7579 72.2627 82.8845L77.37 88.8545C77.5159 89.0269 77.5508 89.2692 77.4571 89.4744C77.3635 89.6796 77.1587 89.8105 76.9322 89.8105Z" fill="#41404D"/>
<path d="M11.9295 11.3919C11.6007 11.3919 11.3349 11.6604 11.3349 11.9878V69.8346C11.3349 70.1664 11.6007 70.4327 11.9295 70.4327H116.07C116.401 70.4327 116.666 70.1664 116.666 69.8346V11.9878C116.666 11.6604 116.401 11.3919 116.07 11.3919H11.9295ZM116.07 71.5918H11.9295C10.9647 71.5918 10.1785 70.8038 10.1785 69.8346V11.9878C10.1785 11.0209 10.9647 10.2329 11.9295 10.2329H116.07C117.037 10.2329 117.823 11.0209 117.823 11.9878V69.8346C117.823 70.8038 117.037 71.5918 116.07 71.5918Z" fill="#41404D"/>
<path d="M66.5012 78.9538C66.5012 80.1674 65.519 81.1519 64.3102 81.1519C63.0993 81.1519 62.1171 80.1674 62.1171 78.9538C62.1171 77.7401 63.0993 76.7578 64.3102 76.7578C65.519 76.7578 66.5012 77.7401 66.5012 78.9538Z" fill="white"/>
<path d="M64.3084 77.336C63.4198 77.336 62.6946 78.0629 62.6946 78.9534C62.6946 79.844 63.4198 80.5709 64.3084 80.5709C65.1992 80.5709 65.9245 79.844 65.9245 78.9534C65.9245 78.0629 65.1992 77.336 64.3084 77.336ZM64.3084 81.73C62.7795 81.73 61.5403 80.4858 61.5403 78.9534C61.5403 77.4233 62.7795 76.1791 64.3084 76.1791C65.8373 76.1791 67.0788 77.4233 67.0788 78.9534C67.0788 80.4858 65.8373 81.73 64.3084 81.73Z" fill="#41404D"/>
</svg>
