<svg width="100" height="100" viewBox="0 0 100 100" fill="none" xmlns="http://www.w3.org/2000/svg">
<path d="M11.5127 17.2803C8.34726 17.2803 5.73022 19.897 5.73022 23.0625V76.9513C5.73022 80.1167 8.34726 82.7195 11.5127 82.7195H88.5028C91.6682 82.7195 94.271 80.1167 94.271 76.9513V23.0625C94.271 19.897 91.6682 17.2803 88.5028 17.2803H11.5127Z" fill="#3E3E3E"/>
<path d="M11.5143 17.2803C8.34891 17.2803 5.72913 19.8964 5.72913 23.0618V32.2565C14.9032 39.1648 31.1998 41.3593 41.5491 36.1846C47.0369 33.4407 58.1604 38.8798 56.8522 45.4206C54.4429 57.4674 42.7601 64.9771 41.5491 77.0869C41.3296 79.2822 41.9803 81.1413 43.2482 82.718H88.5035C91.6689 82.718 94.2698 80.1169 94.2698 76.9515V23.0618C94.2698 19.8964 91.6689 17.2803 88.5035 17.2803H11.5143Z" fill="#2B2B2B"/>
<path d="M15.3627 24.9805C15.1098 24.9804 14.8594 25.0303 14.6258 25.127C14.3922 25.2237 14.1799 25.3656 14.0011 25.5443C13.8222 25.7231 13.6804 25.9352 13.5836 26.1688C13.4868 26.4024 13.437 26.6527 13.437 26.9056C13.437 27.1584 13.4868 27.409 13.5836 27.6426C13.6804 27.8762 13.8222 28.0883 14.0011 28.267C14.1799 28.4458 14.3922 28.5877 14.6258 28.6844C14.8594 28.7811 15.1098 28.8308 15.3627 28.8307H30.7635C31.0164 28.8308 31.2668 28.7811 31.5004 28.6844C31.734 28.5877 31.9463 28.4458 32.1251 28.267C32.304 28.0883 32.4458 27.8762 32.5426 27.6426C32.6394 27.409 32.6892 27.1584 32.6892 26.9056C32.6892 26.6527 32.6394 26.4024 32.5426 26.1688C32.4458 25.9352 32.304 25.7231 32.1251 25.5443C31.9463 25.3656 31.734 25.2237 31.5004 25.127C31.2668 25.0303 31.0164 24.9804 30.7635 24.9805H15.3627Z" fill="#CCCCCC"/>
<path d="M82.7202 24.9805C82.4673 24.9804 82.217 25.0303 81.9833 25.127C81.7497 25.2237 81.5374 25.3656 81.3586 25.5443C81.1798 25.7231 81.0379 25.9352 80.9411 26.1688C80.8444 26.4024 80.7946 26.6527 80.7946 26.9056C80.7946 27.1584 80.8444 27.409 80.9411 27.6426C81.0379 27.8762 81.1798 28.0883 81.3586 28.267C81.5374 28.4458 81.7497 28.5877 81.9833 28.6844C82.217 28.7811 82.4673 28.8308 82.7202 28.8307H84.6524C84.9053 28.8308 85.1557 28.7811 85.3893 28.6844C85.6229 28.5877 85.8352 28.4458 86.014 28.267C86.1928 28.0883 86.3347 27.8762 86.4315 27.6426C86.5283 27.409 86.5781 27.1584 86.5781 26.9056C86.5781 26.6527 86.5283 26.4024 86.4315 26.1688C86.3347 25.9352 86.1928 25.7231 86.014 25.5443C85.8352 25.3656 85.6229 25.2237 85.3893 25.127C85.1557 25.0303 84.9053 24.9804 84.6524 24.9805H82.7202Z" fill="#CCCCCC"/>
<path d="M75.0196 24.9805C74.7668 24.9804 74.5164 25.0303 74.2828 25.127C74.0491 25.2237 73.8369 25.3656 73.658 25.5443C73.4792 25.7231 73.3374 25.9352 73.2406 26.1688C73.1438 26.4024 73.094 26.6527 73.094 26.9056C73.094 27.1584 73.1438 27.409 73.2406 27.6426C73.3374 27.8762 73.4792 28.0883 73.658 28.267C73.8369 28.4458 74.0491 28.5877 74.2828 28.6844C74.5164 28.7811 74.7668 28.8308 75.0196 28.8307H76.9519C77.2047 28.8308 77.4551 28.7811 77.6887 28.6844C77.9224 28.5877 78.1347 28.4458 78.3135 28.267C78.4923 28.0883 78.6341 27.8762 78.7309 27.6426C78.8277 27.409 78.8775 27.1584 78.8775 26.9056C78.8775 26.6527 78.8277 26.4024 78.7309 26.1688C78.6341 25.9352 78.4923 25.7231 78.3135 25.5443C78.1347 25.3656 77.9224 25.2237 77.6887 25.127C77.4551 25.0303 77.2047 24.9804 76.9519 24.9805H75.0196Z" fill="#CCCCCC"/>
<path d="M15.3627 32.6807C15.1098 32.6806 14.8594 32.7305 14.6258 32.8272C14.3922 32.9239 14.1799 33.0655 14.0011 33.2443C13.8222 33.4231 13.6804 33.6354 13.5836 33.869C13.4868 34.1026 13.437 34.3529 13.437 34.6058C13.437 34.8586 13.4868 35.1092 13.5836 35.3428C13.6804 35.5764 13.8222 35.7885 14.0011 35.9672C14.1799 36.146 14.3922 36.2879 14.6258 36.3846C14.8594 36.4813 15.1098 36.5309 15.3627 36.5309H17.2807C17.5335 36.5309 17.7839 36.4813 18.0175 36.3846C18.2512 36.2879 18.4635 36.146 18.6423 35.9672C18.8211 35.7885 18.9629 35.5764 19.0597 35.3428C19.1565 35.1092 19.2063 34.8586 19.2063 34.6058C19.2063 34.3529 19.1565 34.1026 19.0597 33.869C18.9629 33.6354 18.8211 33.4231 18.6423 33.2443C18.4635 33.0655 18.2512 32.9239 18.0175 32.8272C17.7839 32.7305 17.5335 32.6806 17.2807 32.6807H15.3627Z" fill="#CCCCCC"/>
<path d="M15.1637 40.381C14.6533 40.4075 14.1743 40.6358 13.832 41.0154C13.4898 41.3951 13.3124 41.8951 13.3388 42.4055C13.3651 42.916 13.5931 43.3951 13.9727 43.7375C14.3522 44.0799 14.8522 44.2574 15.3626 44.2312H21.1308C21.3837 44.2313 21.6341 44.1816 21.8677 44.0849C22.1013 43.9882 22.3136 43.8463 22.4924 43.6676C22.6712 43.4888 22.8131 43.2765 22.9099 43.0429C23.0066 42.8093 23.0565 42.5589 23.0565 42.3061C23.0565 42.0532 23.0066 41.8029 22.9099 41.5693C22.8131 41.3357 22.6712 41.1236 22.4924 40.9448C22.3136 40.7661 22.1013 40.6242 21.8677 40.5275C21.6341 40.4308 21.3837 40.3809 21.1308 40.381H15.3626C15.2964 40.3776 15.23 40.3776 15.1637 40.381Z" fill="#CCCCCC"/>
<path d="M30.7209 32.6522C30.468 32.6568 30.2186 32.7112 29.9868 32.8123C29.7549 32.9133 29.5453 33.0591 29.3698 33.2411C29.1943 33.4232 29.0565 33.638 28.9641 33.8734C28.8716 34.1088 28.8265 34.36 28.8313 34.6128V73.1008C28.8313 73.6114 29.0341 74.101 29.3951 74.462C29.7562 74.8231 30.2458 75.0259 30.7564 75.0259C31.267 75.0259 31.7566 74.8231 32.1176 74.462C32.4787 74.101 32.6815 73.6114 32.6815 73.1008V34.6128C32.6863 34.354 32.639 34.097 32.5421 33.8569C32.4453 33.6169 32.3011 33.3989 32.1181 33.2158C31.935 33.0328 31.7169 32.8884 31.4769 32.7916C31.2368 32.6948 30.9797 32.6473 30.7209 32.6522Z" fill="#CCCCCC"/>
<path d="M15.1637 48.0817C14.6533 48.1083 14.1743 48.3365 13.8321 48.7161C13.4899 49.0958 13.3125 49.5958 13.3389 50.1062C13.3652 50.6167 13.5932 51.0958 13.9728 51.4382C14.3523 51.7805 14.8522 51.958 15.3626 51.9319H23.0631C23.3159 51.932 23.5663 51.8823 23.8 51.7856C24.0336 51.6889 24.2459 51.547 24.4247 51.3683C24.6035 51.1895 24.7454 50.9774 24.8421 50.7438C24.9389 50.5102 24.9887 50.2596 24.9887 50.0068C24.9887 49.7539 24.9389 49.5036 24.8421 49.27C24.7454 49.0364 24.6035 48.8241 24.4247 48.6453C24.2459 48.4665 24.0336 48.3249 23.8 48.2282C23.5663 48.1315 23.3159 48.0816 23.0631 48.0817H15.3626C15.2964 48.0782 15.23 48.0782 15.1637 48.0817Z" fill="#CCCCCC"/>
<path d="M15.1637 55.7824C14.6533 55.8089 14.1743 56.0369 13.832 56.4166C13.4898 56.7962 13.3124 57.2962 13.3388 57.8067C13.3651 58.3171 13.5931 58.7963 13.9727 59.1386C14.3522 59.481 14.8522 59.6585 15.3626 59.6324H21.1308C21.3837 59.6324 21.6341 59.5828 21.8677 59.4861C22.1013 59.3893 22.3136 59.2475 22.4924 59.0687C22.6712 58.8899 22.8131 58.6778 22.9099 58.4443C23.0066 58.2107 23.0565 57.9601 23.0565 57.7072C23.0565 57.4544 23.0066 57.204 22.9099 56.9705C22.8131 56.7369 22.6712 56.5248 22.4924 56.346C22.3136 56.1672 22.1013 56.0254 21.8677 55.9286C21.6341 55.8319 21.3837 55.7823 21.1308 55.7824H15.3626C15.2964 55.7789 15.23 55.7789 15.1637 55.7824Z" fill="#CCCCCC"/>
<path d="M15.1638 63.4824C14.6788 63.54 14.2339 63.7799 13.9191 64.1533C13.6044 64.5267 13.4434 65.0059 13.4686 65.4936C13.4939 65.9814 13.7037 66.441 14.0553 66.7799C14.407 67.1187 14.8744 67.3113 15.3627 67.3184H23.0631C23.3286 67.3408 23.5958 67.3081 23.8479 67.2218C24.1 67.1356 24.3314 66.9979 24.5276 66.8176C24.7238 66.6373 24.8803 66.4182 24.9875 66.1743C25.0946 65.9303 25.1499 65.6668 25.1499 65.4004C25.1499 65.134 25.0946 64.8705 24.9875 64.6265C24.8803 64.3826 24.7238 64.1637 24.5276 63.9834C24.3314 63.8032 24.1 63.6654 23.8479 63.5792C23.5958 63.493 23.3286 63.46 23.0631 63.4824H15.3627C15.2964 63.479 15.23 63.479 15.1638 63.4824Z" fill="#CCCCCC"/>
<path d="M15.3627 71.1689C15.1098 71.1689 14.8594 71.2187 14.6258 71.3155C14.3922 71.4122 14.1799 71.554 14.0011 71.7328C13.8222 71.9116 13.6804 72.1237 13.5836 72.3573C13.4868 72.5909 13.437 72.8412 13.437 73.0941C13.437 73.3469 13.4868 73.5975 13.5836 73.8311C13.6804 74.0647 13.8222 74.2768 14.0011 74.4555C14.1799 74.6343 14.3922 74.7762 14.6258 74.8729C14.8594 74.9696 15.1098 75.0195 15.3627 75.0194H21.1309C21.3837 75.0195 21.6341 74.9696 21.8678 74.8729C22.1014 74.7762 22.3137 74.6343 22.4925 74.4555C22.6713 74.2768 22.8132 74.0647 22.9099 73.8311C23.0067 73.5975 23.0565 73.3469 23.0565 73.0941C23.0565 72.8412 23.0067 72.5909 22.9099 72.3573C22.8132 72.1237 22.6713 71.9116 22.4925 71.7328C22.3137 71.554 22.1014 71.4122 21.8678 71.3155C21.6341 71.2187 21.3837 71.1689 21.1309 71.1689H15.3627Z" fill="#CCCCCC"/>
<path d="M40.382 32.6807C38.2828 32.6807 36.5317 34.4318 36.5317 36.5309V48.0815C36.5317 50.1806 38.2828 51.9317 40.382 51.9317H82.7201C84.8193 51.9317 86.5704 50.1806 86.5704 48.0815V36.5309C86.5704 34.4318 84.8193 32.6807 82.7201 32.6807H40.382Z" fill="#FF234E"/>
<path d="M59.4057 38.4633C58.9354 38.5174 58.5015 38.7428 58.187 39.0966C57.8725 39.4505 57.6994 39.9077 57.7008 40.3811V44.2313C57.701 44.6114 57.8138 44.9829 58.0249 45.2991C58.236 45.6152 58.5359 45.8618 58.887 46.0077C59.238 46.1535 59.6243 46.1923 59.9973 46.1189C60.3703 46.0455 60.7132 45.8632 60.9827 45.5952L62.9149 43.663C63.2733 43.3024 63.4745 42.8146 63.4745 42.3062C63.4745 41.7977 63.2733 41.31 62.9149 40.9494L60.9827 39.0171C60.7785 38.8121 60.5306 38.656 60.2575 38.5601C59.9845 38.4641 59.6933 38.4312 59.4057 38.4633Z" fill="#CCCCCC"/>
<path d="M36.5319 58.0299V73.1038C36.5355 74.1616 37.3921 75.0183 38.4499 75.022H50.0005C51.0638 75.0261 51.929 74.1671 51.9327 73.1038V57.7032C51.9289 56.6399 51.0638 55.7811 50.0005 55.7852H38.8049C37.0892 55.7852 36.5319 56.6191 36.5319 58.0299Z" fill="#FFD180"/>
<path d="M53.8507 58.029V73.1031C53.8544 74.1663 54.7196 75.0251 55.7829 75.0211H67.3194C68.3827 75.0251 69.2479 74.1663 69.2516 73.1031V57.7022C69.2477 56.6389 68.3826 55.7801 67.3194 55.7842H56.138C54.7181 55.7842 53.8507 56.3727 53.8507 58.029Z" fill="#5DB2F6"/>
<path d="M71.1696 57.9863V73.1031C71.1732 74.1663 72.0385 75.0251 73.1018 75.0211H84.6524C85.7102 75.0174 86.5667 74.1608 86.5704 73.1031V57.7022C86.5668 56.6444 85.7101 55.7879 84.6524 55.7842H73.4569C71.7728 55.7842 71.1696 56.5521 71.1696 57.9863Z" fill="#CCCCCC"/>
<path d="M67.3193 24.9805C67.0665 24.9804 66.8161 25.0303 66.5825 25.127C66.3488 25.2237 66.1365 25.3656 65.9577 25.5443C65.7789 25.7231 65.637 25.9352 65.5403 26.1688C65.4435 26.4024 65.3937 26.6527 65.3937 26.9056C65.3937 27.1584 65.4435 27.409 65.5403 27.6426C65.637 27.8762 65.7789 28.0883 65.9577 28.267C66.1365 28.4458 66.3488 28.5877 66.5825 28.6844C66.8161 28.7811 67.0665 28.8308 67.3193 28.8307H69.2515C69.5044 28.8308 69.7548 28.7811 69.9884 28.6844C70.222 28.5877 70.4343 28.4458 70.6131 28.267C70.792 28.0883 70.9338 27.8762 71.0306 27.6426C71.1274 27.409 71.1772 27.1584 71.1772 26.9056C71.1772 26.6527 71.1274 26.4024 71.0306 26.1688C70.9338 25.9352 70.792 25.7231 70.6131 25.5443C70.4343 25.3656 70.222 25.2237 69.9884 25.127C69.7548 25.0303 69.5044 24.9804 69.2515 24.9805H67.3193Z" fill="#CCCCCC"/>
<path d="M36.5321 58.0314V59.6366H46.1515C47.2144 59.6326 48.0794 60.4908 48.0837 61.5537V75.0224H50.0008C51.0637 75.0265 51.9287 74.1682 51.9329 73.1053V57.7044C51.9304 56.6403 51.0648 55.78 50.0007 55.7842H38.8024C37.1656 55.7842 36.5321 56.5678 36.5321 58.0314Z" fill="#FFAA5A"/>
<path d="M53.8511 58.0309V59.6361H63.4705C64.5334 59.6321 65.3984 60.4904 65.4026 61.5533V75.0219H67.3198C68.3827 75.026 69.2477 74.1677 69.2519 73.1048V57.7039C69.2494 56.6398 68.3838 55.7796 67.3196 55.7837H56.1214C54.4967 55.7837 53.8511 56.57 53.8511 58.0309Z" fill="#0C68E3"/>
<path d="M71.1727 58.0309V59.6361H80.7921C81.8551 59.6321 82.7201 60.4904 82.7243 61.5533V75.0219H84.6414C85.7043 75.026 86.5693 74.1677 86.5736 73.1048V57.7039C86.5711 56.6398 85.7055 55.7796 84.6413 55.7837H73.4431C71.6611 55.7837 71.1727 56.5487 71.1727 58.0309Z" fill="#747474"/>
<path d="M40.382 32.6807C38.2828 32.6807 36.5327 34.4307 36.5327 36.5298H78.8709C80.9701 36.5298 82.7202 38.28 82.7202 40.3791V51.9309C82.7202 51.9289 82.7202 51.9321 82.7202 51.9309C84.8194 51.9309 86.5695 50.1806 86.5695 48.0815V36.53C86.5695 34.4309 84.8194 32.6807 82.7202 32.6807H40.382Z" fill="#BF1235"/>
</svg>
